<svg width="300" height="200" viewBox="0 0 300 200" fill="none" xmlns="http://www.w3.org/2000/svg">
    <defs>
        <linearGradient id="goLightBeam" x1="0" y1="0" x2="1" y2="0">
            <stop offset="0%" stop-color="#00ADD8" stop-opacity="0.9"/>
            <stop offset="100%" stop-color="#00ADD8" stop-opacity="0.1"/>
        </linearGradient>
         <color id="cinemaBlack" value="#222222"/>
    </defs>

    <g transform="translate(30, 100)">
        <rect x="-20" y="20" width="60" height="10" fill="url(#cinemaBlack)"/>
        <rect x="-10" y="-20" width="40" height="40" rx="5" fill="url(#cinemaBlack)"/>
        <rect x="30" y="-10" width="20" height="20" fill="#555555"/>
        <circle cx="50" cy="0" r="10" fill="#888888"/>
        <circle cx="0" cy="-40" r="20" stroke="url(#cinemaBlack)" stroke-width="4" fill="none"/>
        <circle cx="25" cy="-35" r="15" stroke="url(#cinemaBlack)" stroke-width="4" fill="none"/>
    </g>

    <path d="M80 100 L 250 50 L 250 150 Z" fill="url(#goLightBeam)"/>

    <g transform="translate(230, 93)" fill="#00ADD8">
        <path d="M0 -30 C 25 -30, 35 -10, 35 10 C 35 35, 15 45, 0 45 C -15 45, -35 35, -35 10 C -35 -10, -25 -30, 0 -30 Z" />
        <ellipse cx="-25" cy="-20" rx="8" ry="12" transform="rotate(-20)"/>
        <ellipse cx="25" cy="-20" rx="8" ry="12" transform="rotate(20)"/>
        <circle cx="-12" cy="-5" r="5" fill="white"/>
        <circle cx="12" cy="-5" r="5" fill="white"/>
    </g>
</svg>