<svg xmlns="http://www.w3.org/2000/svg" viewBox="0 0 300 330" width="300" height="330">
  <g transform="translate(150, 165)">

    <g transform="translate(0, 20)">
        <path d="M-50,-60 C-80,-30 -80,40 -60,80 C-40,110 40,110 60,80 C80,40 80,-30 50,-60 C20,-90 -20,-90 -50,-60 Z" fill="#00ADD8"/>
        <ellipse cx="-35" cy="105" rx="15" ry="10" fill="#00ADD8"/>
        <ellipse cx="35" cy="105" rx="15" ry="10" fill="#00ADD8"/>
    </g>

    <g transform="translate(0, -20)">
        <ellipse cx="0" cy="15" rx="12" ry="8" fill="#222222"/>
        <rect x="-6" y="22" width="12" height="8" rx="2" fill="#FFFFFF" stroke="#222222" stroke-width="1"/>
        <line x1="0" y1="22" x2="0" y2="30" stroke="#222222" stroke-width="1"/>

        <g transform="translate(0, 5)">
            <circle cx="-22" cy="-10" r="15" fill="#FFFFFF"/>
            <circle cx="-20" cy="-6" r="6" fill="#222222"/>
            <circle cx="22" cy="-10" r="15" fill="#FFFFFF"/>
            <circle cx="20" cy="-6" r="6" fill="#222222"/>
            
            <circle cx="-22" cy="-5" r="19" fill="none" stroke="#333333" stroke-width="4"/>
            <circle cx="22" cy="-5" r="19" fill="none" stroke="#333333" stroke-width="4"/>
            <path d="M-3,-5 Q0,-8 3,-5" fill="none" stroke="#333333" stroke-width="3"/>
        </g>
    </g>

    <g transform="translate(0, -55)">
        <path d="M-38,10 C-38,-25 -20,-45 0,-45 C20,-45 38,-25 38,10 Z" fill="#9E9E9E"/> 
        
        <path d="M-38,10 C-38,10 -20,25 0,25 C20,25 38,10 38,10 C38,10 20,0 0,0 C-20,0 -38,10 -38,10 Z" fill="#757575"/>
        
        <circle cx="0" cy="-45" r="3" fill="#757575"/>
        
        <path d="M0,-45 L0,0" stroke="#888888" stroke-width="1" fill="none"/>
    </g>

    <g transform="translate(0, 60)">
        <ellipse cx="-45" cy="10" rx="15" ry="12" fill="#00ADD8" transform="rotate(-30)"/>
        <ellipse cx="45" cy="10" rx="15" ry="12" fill="#00ADD8" transform="rotate(30)"/>

        <g transform="translate(0, 5)">
            <path d="M-60,5 L-10,20 L10,20 L60,5 L50,35 L-50,35 Z" fill="#8D6E63"/>
            <path d="M0,20 C-10,20 -50,8 -60,5 L-55,-15 C-45,-12 -10,15 0,15 Z" fill="#F5F5F5" stroke="#E0E0E0" stroke-width="1.5"/>
            <path d="M0,20 C10,20 50,8 60,5 L55,-15 C45,-12 10,15 0,15 Z" fill="#F5F5F5" stroke="#E0E0E0" stroke-width="1.5"/>
            <line x1="0" y1="15" x2="0" y2="35" stroke="#8D6E63" stroke-width="2"/>
            <line x1="-45" y1="0" x2="-15" y2="8" stroke="#CCCCCC" stroke-width="2"/>
            <line x1="-45" y1="8" x2="-20" y2="15" stroke="#CCCCCC" stroke-width="2"/>
            <line x1="15" y1="8" x2="45" y2="0" stroke="#CCCCCC" stroke-width="2"/>
            <line x1="20" y1="15" x2="45" y2="8" stroke="#CCCCCC" stroke-width="2"/>
        </g>
    </g>

  </g>
</svg>